<?xml version="1.0" encoding="utf-8"?>
<!-- Generator: Adobe Illustrator 16.0.0, SVG Export Plug-In . SVG Version: 6.00 Build 0)  -->
<!DOCTYPE svg PUBLIC "-//W3C//DTD SVG 1.1//EN" "http://www.w3.org/Graphics/SVG/1.1/DTD/svg11.dtd">
<svg version="1.1" id="Layer_1" xmlns="http://www.w3.org/2000/svg" xmlns:xlink="http://www.w3.org/1999/xlink" x="0px" y="0px"
	 width="50px" height="50px" viewBox="0 0 100.625 100.625" enable-background="new 0 0 100.625 100.625"
	 xml:space="preserve">
<title>Artwork 3</title>
<g id="Layer_2">
	<g id="Layer_1-2">
		<g id="Artwork_3">
			<g>
				<g>
					<path fill="#FFFFFF" d="M50.312,0c27.788,0,50.313,22.526,50.313,50.313c0,27.787-22.525,50.313-50.313,50.313
						C22.526,100.625,0,78.099,0,50.313C0.019,22.534,22.534,0.02,50.312,0 M50.312,95.196c24.79,0,44.885-20.096,44.885-44.884
						c0-24.789-20.096-44.885-44.885-44.885c-24.788,0-44.884,20.096-44.884,44.885C5.458,75.089,25.536,95.167,50.312,95.196"/>
					<path fill="#FFFFFF" d="M68.115,33.929c0.816,0.013,1.59,0.373,2.125,0.991c0.936,1.146,0.768,2.833-0.379,3.771
						c-0.012,0.008-0.021,0.017-0.031,0.024L51.527,53.572c-0.996,0.833-2.444,0.833-3.439,0L30.741,39.509
						c-1.161-0.937-1.343-2.638-0.406-3.799s2.638-1.343,3.799-0.406l15.679,12.705l16.59-13.518
						C66.896,34.121,67.498,33.923,68.115,33.929"/>
					<path fill="#FFFFFF" d="M68.115,50c0.816,0.012,1.59,0.373,2.125,0.991c0.936,1.146,0.768,2.833-0.379,3.769
						c-0.012,0.009-0.021,0.019-0.031,0.026l-18.303,14.92c-0.996,0.832-2.444,0.832-3.439,0L30.741,55.643
						c-1.161-0.937-1.343-2.638-0.406-3.799s2.638-1.343,3.799-0.405l15.679,12.704l16.59-13.518
						C66.887,50.232,67.49,50.013,68.115,50"/>
				</g>
			</g>
		</g>
	</g>
</g>
</svg>
